<svg width="29.999023" height="25.797693" viewBox="0 0 29.999 25.7977" fill="none" xmlns="http://www.w3.org/2000/svg" xmlns:xlink="http://www.w3.org/1999/xlink">
	<desc>
			Created with Pixso.
	</desc>
	<defs/>
	<path id="Ellipse 6" d="M4.58 0C2.04 2.45 0.55 5.59 0.12 8.84C-0.34 12.35 0.46 15.73 2.16 18.54C3.98 21.57 6.71 23.72 9.79 24.85C13.1 26.08 16.58 26.06 19.69 25.03C23.05 23.93 25.75 21.75 27.55 19C29.48 16.04 30.24 12.65 29.93 9.38C29.6 5.86 28.07 2.74 25.79 0.38L22.21 3.83C23.86 5.53 24.77 7.66 24.98 9.85C25.2 12.2 24.59 14.44 23.39 16.28C22.1 18.26 20.22 19.63 18.14 20.31C15.89 21.06 13.57 20.96 11.51 20.19C9.3 19.38 7.54 17.85 6.41 15.97C5.19 13.95 4.76 11.67 5.05 9.49C5.36 7.15 6.45 5.1 8.03 3.57L4.58 0Z" fill="#7E94F9" fill-opacity="1.000000" fill-rule="evenodd"/>
</svg>
