<svg width="41.000000" height="24.000000" viewBox="0 0 41 24" fill="none" xmlns="http://www.w3.org/2000/svg" xmlns:xlink="http://www.w3.org/1999/xlink">
	<desc>
			Created with Pixso.
	</desc>
	<defs/>
	<path id="Vector" d="M10.25 6.85L13.66 6.85L13.66 10.28L17.08 10.28L17.08 13.71L13.66 13.71L13.66 17.14L10.25 17.14L10.25 13.71L6.83 13.71L6.83 10.28L10.25 10.28L10.25 6.85ZM31.6 6.85C32.28 6.85 32.93 7.12 33.41 7.61C33.89 8.09 34.16 8.74 34.16 9.42C34.16 10.11 33.89 10.76 33.41 11.24C32.93 11.72 32.28 12 31.6 12C30.92 12 30.27 11.72 29.79 11.24C29.31 10.76 29.04 10.11 29.04 9.42C29.04 8.74 29.31 8.09 29.79 7.61C30.27 7.12 30.92 6.85 31.6 6.85ZM26.47 12C27.15 12 27.81 12.27 28.29 12.75C28.77 13.23 29.04 13.88 29.04 14.57C29.04 15.25 28.77 15.9 28.29 16.38C27.81 16.87 27.15 17.14 26.47 17.14C25.79 17.14 25.14 16.87 24.66 16.38C24.18 15.9 23.91 15.25 23.91 14.57C23.91 13.88 24.18 13.23 24.66 12.75C25.14 12.27 25.79 12 26.47 12ZM29.04 0C32.21 0 35.25 1.26 37.49 3.51C39.74 5.76 41 8.81 41 12C41 15.18 39.74 18.23 37.49 20.48C35.25 22.73 32.21 24 29.04 24C25.69 24 22.66 22.62 20.5 20.4C19.38 21.54 18.06 22.45 16.59 23.06C15.12 23.68 13.54 24 11.95 24C8.78 24 5.74 22.73 3.5 20.48C1.25 18.23 0 15.18 0 12C0 8.81 1.25 5.76 3.5 3.51C5.74 1.26 8.78 0 11.95 0L29.04 0ZM11.95 3.42C9.69 3.42 7.52 4.33 5.91 5.93C4.31 7.54 3.41 9.72 3.41 12C3.41 14.27 4.31 16.45 5.91 18.06C7.52 19.66 9.69 20.57 11.95 20.57C14.75 20.57 17.23 19.21 18.79 17.14L22.2 17.14C23.76 19.21 26.24 20.57 29.04 20.57C31.3 20.57 33.47 19.66 35.08 18.06C36.68 16.45 37.58 14.27 37.58 12C37.58 9.72 36.68 7.54 35.08 5.93C33.47 4.33 31.3 3.42 29.04 3.42L11.95 3.42Z" fill="#000000" fill-opacity="1.000000" fill-rule="nonzero"/>
</svg>
