<svg width="30.000000" height="30.000002" viewBox="0 0 30 30" fill="none" xmlns="http://www.w3.org/2000/svg" xmlns:xlink="http://www.w3.org/1999/xlink">
	<desc>
			Created with Pixso.
	</desc>
	<defs>
		<clipPath id="clip342_160">
			<rect id="mdi:ballot-outline" rx="0.000000" width="29.000000" height="29.000000" transform="translate(0.500000 0.500000)" fill="white" fill-opacity="0"/>
		</clipPath>
	</defs>
	<rect id="mdi:ballot-outline" rx="0.000000" width="29.000000" height="29.000000" transform="translate(0.500000 0.500000)" fill="#FFFFFF" fill-opacity="1.000000"/>
	<g clip-path="url(#clip342_160)">
		<path id="Vector" d="M16.25 9.37L22.5 9.37L22.5 11.87L16.25 11.87L16.25 9.37ZM16.25 18.12L22.5 18.12L22.5 20.62L16.25 20.62L16.25 18.12ZM23.75 3.75C24.41 3.75 25.04 4.01 25.51 4.48C25.98 4.95 26.25 5.58 26.25 6.25L26.25 23.75C26.25 24.41 25.98 25.04 25.51 25.51C25.04 25.98 24.41 26.25 23.75 26.25L6.25 26.25C5.58 26.25 4.95 25.98 4.48 25.51C4.01 25.04 3.75 24.41 3.75 23.75L3.75 6.25C3.75 5.58 4.01 4.95 4.48 4.48C4.95 4.01 5.58 3.75 6.25 3.75L23.75 3.75ZM23.75 23.75L23.75 6.25L6.25 6.25L6.25 23.75L23.75 23.75ZM13.75 7.5L13.75 13.75L7.5 13.75L7.5 7.5L13.75 7.5ZM12.5 12.5L12.5 8.75L8.75 8.75L8.75 12.5L12.5 12.5ZM13.75 16.25L13.75 22.5L7.5 22.5L7.5 16.25L13.75 16.25ZM12.5 21.25L12.5 17.5L8.75 17.5L8.75 21.25L12.5 21.25Z" fill="#000000" fill-opacity="1.000000" fill-rule="nonzero"/>
	</g>
</svg>
