<svg width="24.000000" height="24.000000" viewBox="0 0 24 24" fill="none" xmlns="http://www.w3.org/2000/svg" xmlns:xlink="http://www.w3.org/1999/xlink">
	<desc>
			Created with Pixso.
	</desc>
	<defs/>
	<path id="Vector" d="M12 0C13.59 0 15.11 0.63 16.24 1.75C17.36 2.88 18 4.4 18 6C18 7.59 17.36 9.11 16.24 10.24C15.11 11.36 13.59 12 12 12C10.4 12 8.88 11.36 7.75 10.24C6.63 9.11 6 7.59 6 6C6 4.4 6.63 2.88 7.75 1.75C8.88 0.63 10.4 0 12 0ZM12 15C18.62 15 24 17.68 24 21L24 24L0 24L0 21C0 17.68 5.37 15 12 15Z" fill="#7E94F9" fill-opacity="1.000000" fill-rule="nonzero"/>
</svg>
