<svg width="24.000000" height="24.000000" viewBox="0 0 24 24" fill="none" xmlns="http://www.w3.org/2000/svg" xmlns:xlink="http://www.w3.org/1999/xlink">
	<desc>
			Created with Pixso.
	</desc>
	<defs/>
	<path id="Vector" d="M12 14.4C18.62 14.4 24 16.91 24 20L24 24L0 24L0 20C0 16.91 5.37 14.4 12 14.4ZM22.4 20C22.4 17.79 17.74 16 12 16C6.25 16 1.59 17.79 1.59 20L1.59 22.4L22.4 22.4L22.4 20ZM12 0C13.48 0 14.9 0.58 15.96 1.64C17 2.69 17.59 4.11 17.59 5.59C17.59 7.08 17 8.5 15.96 9.55C14.9 10.61 13.48 11.2 12 11.2C10.51 11.2 9.09 10.61 8.04 9.55C6.99 8.5 6.4 7.08 6.4 5.59C6.4 4.11 6.99 2.69 8.04 1.64C9.09 0.58 10.51 0 12 0ZM12 1.59C10.93 1.59 9.92 2.02 9.17 2.77C8.42 3.52 8 4.53 8 5.59C8 6.66 8.42 7.67 9.17 8.42C9.92 9.17 10.93 9.59 12 9.59C13.06 9.59 14.07 9.17 14.82 8.42C15.57 7.67 16 6.66 16 5.59C16 4.53 15.57 3.52 14.82 2.77C14.07 2.02 13.06 1.59 12 1.59Z" fill="#878787" fill-opacity="1.000000" fill-rule="nonzero"/>
</svg>
